<?xml version="1.0" encoding="utf-8"?>
<!-- Generator: Adobe Illustrator 24.1.2, SVG Export Plug-In . SVG Version: 6.00 Build 0)  -->
<svg version="1.1" id="Layer_1" xmlns="http://www.w3.org/2000/svg" xmlns:xlink="http://www.w3.org/1999/xlink" x="0px" y="0px"
	 viewBox="0 0 841.89 272.39" style="enable-background:new 0 0 841.89 272.39;" xml:space="preserve">
<path d="M152.63,242.41L152.63,242.41c-3.85,0-6.97-3.12-6.97-6.97V42.57c0-3.85,3.12-6.97,6.97-6.97h0c3.85,0,6.97,3.12,6.97,6.97
	v192.87C159.6,239.29,156.48,242.41,152.63,242.41z"/>
<path d="M133.06,205.56L133.06,205.56c-3.85,0-6.97-3.12-6.97-6.97V79.42c0-3.85,3.12-6.97,6.97-6.97h0c3.85,0,6.97,3.12,6.97,6.97
	V198.6C140.02,202.44,136.9,205.56,133.06,205.56z"/>
<path d="M93.91,212.33L93.91,212.33c-3.85,0-6.97-3.12-6.97-6.97V72.65c0-3.85,3.12-6.97,6.97-6.97h0c3.85,0,6.97,3.12,6.97,6.97
	v132.71C100.88,209.21,97.76,212.33,93.91,212.33z"/>
<path d="M113.49,184.57L113.49,184.57c-3.85,0-6.97-3.12-6.97-6.97v-77.19c0-3.85,3.12-6.97,6.97-6.97h0c3.85,0,6.97,3.12,6.97,6.97
	v77.19C120.45,181.45,117.33,184.57,113.49,184.57z"/>
<path d="M74.34,188.43L74.34,188.43c-3.85,0-6.97-3.12-6.97-6.97V96.55c0-3.85,3.12-6.97,6.97-6.97h0c3.85,0,6.97,3.12,6.97,6.97
	v84.92C81.31,185.31,78.19,188.43,74.34,188.43z"/>
<path d="M54.77,160.08L54.77,160.08c-3.85,0-6.97-3.12-6.97-6.97V124.9c0-3.85,3.12-6.97,6.97-6.97h0c3.85,0,6.97,3.12,6.97,6.97
	v28.21C61.74,156.96,58.62,160.08,54.77,160.08z"/>
<path d="M35.2,170.09L35.2,170.09c-3.85,0-6.97-3.12-6.97-6.97v-48.23c0-3.85,3.12-6.97,6.97-6.97h0c3.85,0,6.97,3.12,6.97,6.97
	v48.23C42.17,166.97,39.05,170.09,35.2,170.09z"/>
<path d="M172.2,216.15L172.2,216.15c-3.85,0-6.97-3.12-6.97-6.97V68.83c0-3.85,3.12-6.97,6.97-6.97h0c3.85,0,6.97,3.12,6.97,6.97
	v140.35C179.17,213.03,176.05,216.15,172.2,216.15z"/>
<path d="M191.77,184.57L191.77,184.57c-3.85,0-6.97-3.12-6.97-6.97v-77.19c0-3.85,3.12-6.97,6.97-6.97h0c3.85,0,6.97,3.12,6.97,6.97
	v77.19C198.74,181.45,195.62,184.57,191.77,184.57z"/>
<path d="M230.91,176.23L230.91,176.23c-3.85,0-6.97-3.12-6.97-6.97v-60.52c0-3.85,3.12-6.97,6.97-6.97h0c3.85,0,6.97,3.12,6.97,6.97
	v60.52C237.88,173.12,234.76,176.23,230.91,176.23z"/>
<path d="M250.48,164.2L250.48,164.2c-3.85,0-6.97-3.12-6.97-6.97v-36.45c0-3.85,3.12-6.97,6.97-6.97h0c3.85,0,6.97,3.12,6.97,6.97
	v36.45C257.45,161.08,254.33,164.2,250.48,164.2z"/>
<path d="M289.63,153.56L289.63,153.56c-3.85,0-6.97-3.12-6.97-6.97v-15.17c0-3.85,3.12-6.97,6.97-6.97h0c3.85,0,6.97,3.12,6.97,6.97
	v15.17C296.59,150.44,293.47,153.56,289.63,153.56z"/>
<path d="M309.2,149.95L309.2,149.95c-3.85,0-6.97-3.12-6.97-6.97v-7.95c0-3.85,3.12-6.97,6.97-6.97l0,0c3.85,0,6.97,3.12,6.97,6.97
	v7.95C316.16,146.83,313.04,149.95,309.2,149.95z"/>
<path d="M15.63,149.95L15.63,149.95c-3.85,0-6.97-3.12-6.97-6.97v-7.95c0-3.85,3.12-6.97,6.97-6.97h0c3.85,0,6.97,3.12,6.97,6.97
	v7.95C22.6,146.83,19.48,149.95,15.63,149.95z"/>
<path d="M270.05,171.49L270.05,171.49c-3.85,0-6.97-3.12-6.97-6.97v-51.03c0-3.85,3.12-6.97,6.97-6.97l0,0
	c3.85,0,6.97,3.12,6.97,6.97v51.03C277.02,168.37,273.9,171.49,270.05,171.49z"/>
<path d="M211.34,207.15L211.34,207.15c-3.85,0-6.97-3.12-6.97-6.97V77.83c0-3.85,3.12-6.97,6.97-6.97h0c3.85,0,6.97,3.12,6.97,6.97
	v122.36C218.31,204.03,215.19,207.15,211.34,207.15z"/>
<polygon points="395.02,156.83 367.28,156.83 361.66,184.57 389.39,184.57 "/>
<polygon points="445.39,132.93 437.16,132.93 435.11,95.33 474.48,95.33 474.48,127.06 490.63,95.33 523.54,95.33 524.32,125 
	538.23,95.33 577.01,95.33 557.33,132.93 564.97,132.93 537.94,185.82 500.92,185.82 499.45,154.09 484.76,185.82 447.15,185.82 "/>
<path d="M686.31,133.23c0,0,5.51-15.68,1.21-24.94c-3.06-6.59-9.59-16.2-34.26-15.87c-24.68,0.33-39.66,5.95-39.66,5.95l-6.06,26.88
	h6.5c0,0,10.8-7.27,19.5-8.48c8.7-1.21,14.21,0,15.85,1.98c1.64,1.98,0,5.36,0,5.36s-21.84-0.88-38.59,9.11h8.81
	c0,0-5.47,2.83-11.86,11.86c-7.55,10.68-8.37,24.9-0.49,33.44c6.02,6.53,16.51,7.54,23.19,7.54c10.69,0,15.31-2.53,15.31-2.53
	l0.11,1.76H683l12.45-52.08H686.31z M651.05,161.28c0,0-2.64,2.42-6.28,2.42c-3.64,0-8.26-3.42-6.28-10.03
	c1.98-6.61,15.98-8.92,15.98-8.92L651.05,161.28z"/>
<polygon points="743.93,133.08 736.22,133.08 731.7,95.07 771.47,95.07 773.68,131.1 792.85,95.07 831.52,95.07 809.48,133.08 
	816.87,133.08 787.01,185.19 749.55,185.19 "/>
<polygon points="396.32,158.2 367.92,158.2 361.66,185.82 390.06,185.82 "/>
</svg>
